# xmcd
#
# Track frame offsets: 
#        150
#        12461
#        24522
#        35055
#        45624
#        55158
#        65466
#        74574
#        87208
#        100924
#        111593
#        120835
#        133333
#        146996
#        158156
#        171327
#        183997
#        193383
#
# Disc length: 2750 seconds
#
# Revision: 0
# Processed by: cddbd v1.5.2PL0 Copyright (c) Steve Scherf et al.
# Submitted via: ExactAudioCopy v1.3
#
DISCID=110abc12
DTITLE=Various Artist - Best of King Records-Heartwarming Gospel: 18 Greatest
DTITLE=Hits (Original King Recordings)
DYEAR=2014
DGENRE=Country
TTITLE0=Grandpa Jones - Come And Dine
TTITLE1=Reno and Smiley - Since I've Used My Bible For A Roadmap
TTITLE2=Mac Odell - One Day Religion
TTITLE3=Harlen County Four - John Three-Sixteen
TTITLE4=Moore and Napier - Gathering In The Sky
TTITLE5=The Stanley Brothers - Somebody Touched Me
TTITLE6=Easter Brothers and The Green Valley Quartet - He Saved My Soul
TTITLE7=Shannon Grayson - Let Me Travel Alone
TTITLE8=Tommy Magness - Jesus Will Save Your Soul
TTITLE9=Brown's Ferry Four - Heaven Eternal Four Me
TTITLE10=Maddox Brothers and Rose - He Set Me Free
TTITLE11=Cowboy Copas - Gour Books In The Bible
TTITLE12=Wade Mainer - Dust On The Bible
TTITLE13=Bailes Brothers - God's Hand Rules The World
TTITLE14=King's Sacred Quartet - Turn Your Radio On
TTITLE15=J.E. Mainer - Workin' On A Building
TTITLE16=Parker Family - Build Your Treasures In Heaven
TTITLE17=Brother Claude Ely - There Ain't No Grave Gonna Hold My Body 
TTITLE17=Down
EXTD=
EXTT0=
EXTT1=
EXTT2=
EXTT3=
EXTT4=
EXTT5=
EXTT6=
EXTT7=
EXTT8=
EXTT9=
EXTT10=
EXTT11=
EXTT12=
EXTT13=
EXTT14=
EXTT15=
EXTT16=
EXTT17=
PLAYORDER=
